<?xml version="1.0" encoding="UTF-8"?>
<svg version="1.1" xmlns="http://www.w3.org/2000/svg" width="400" height="400">
<path d="M0 0 C25.75362821 -0.79089837 48.59649183 8.46750968 67.37890625 25.80859375 C94.87773787 52.13872503 106.83160378 91.85353616 107.78515625 129.125 C107.80562012 129.83446777 107.82608398 130.54393555 107.84716797 131.27490234 C109.68521758 203.7791237 81.87144188 280.74650932 33.3359375 334.85546875 C12.09870183 356.91346715 -16.63449173 373.54740037 -47.70458984 374.41064453 C-68.86327463 374.65527931 -88.85124265 368.76708673 -104.52734375 354.3125 C-111.45226351 347.09379577 -115.29787937 337.66103324 -115.33984375 327.6875 C-115.3081075 326.16642704 -115.2699088 324.64540718 -115.21484375 323.125 C-111.06561659 324.5204467 -108.4131904 326.4830274 -105.15234375 329.375 C-94.21623282 338.48110576 -80.66604629 344.3095248 -66.21484375 343.125 C-51.51636165 341.31595605 -37.38555127 334.19151351 -27.91015625 322.65625 C-18.65417063 308.83625304 -13.6857295 294.45206909 -16.8671875 277.6875 C-22.42515783 257.84101368 -36.29248598 243.74653692 -53.81811523 233.78173828 C-77.25929833 221.03074848 -105.93292167 221.1143542 -131.26171875 228.2265625 C-143.53866327 231.91908264 -153.60183219 237.70155843 -163.21484375 246.125 C-163.90320313 246.71796875 -164.5915625 247.3109375 -165.30078125 247.921875 C-181.74265753 263.12898587 -187.74280407 284.53554013 -188.72363281 306.25244141 C-188.86702522 310.1053593 -188.97660624 313.95873113 -189.05712891 317.81347656 C-189.20864474 320.03414521 -189.60214299 321.99007277 -190.21484375 324.125 C-191.20484375 323.795 -192.19484375 323.465 -193.21484375 323.125 C-200.64906547 303.81189731 -200.44949506 281.47105917 -200.46484375 261.0625 C-200.46551849 260.24763123 -200.46619324 259.43276245 -200.46688843 258.59320068 C-200.45019788 245.85503959 -199.74985332 233.63641763 -197.21484375 221.125 C-197.05387207 220.2597168 -196.89290039 219.39443359 -196.72705078 218.50292969 C-185.85582984 160.12624857 -157.57598571 99.57782764 -114.21484375 58.125 C-111.81764293 55.75096054 -109.44314657 53.36875188 -107.13671875 50.90625 C-79.65435509 22.03988241 -39.71751978 2.24155314 0 0 Z " fill="#73B01A" transform="translate(245.21484375,16.875)"/>
</svg>
